<?xml version="1.0" encoding="UTF-8"?>
<svg version="1.1" xmlns="http://www.w3.org/2000/svg" width="800" height="800">
<path d="M0 0 C1.23032583 -0.00465992 2.46065167 -0.00931984 3.7282601 -0.01412097 C7.13244774 -0.02398776 10.5361394 -0.02050149 13.9402967 -0.01128729 C17.64788228 -0.00456249 21.3554253 -0.01525111 25.06300175 -0.02368313 C31.5574957 -0.03604634 38.0519174 -0.03726397 44.54641914 -0.0311327 C54.2040931 -0.02203955 63.86170026 -0.03007535 73.51936909 -0.04142394 C90.76884355 -0.06109319 108.01828795 -0.06343776 125.26777094 -0.05822874 C140.36430081 -0.0536721 155.46081877 -0.05427008 170.55734825 -0.06006908 C172.58213811 -0.06082595 174.60692798 -0.06158193 176.63171784 -0.06233703 C179.68286998 -0.06348222 182.73402212 -0.0646321 185.78517425 -0.06579627 C214.15320607 -0.07650181 242.52123393 -0.08122596 270.88926697 -0.07332611 C271.95869501 -0.07302894 273.02812306 -0.07273176 274.12995802 -0.07242559 C282.81454503 -0.06997663 291.49913199 -0.06736506 300.18371894 -0.06474145 C334.06047687 -0.05463873 367.93718522 -0.06299469 401.81393623 -0.086236 C439.87391335 -0.11230498 477.93386063 -0.12515752 515.99384701 -0.11804825 C520.05161484 -0.11733219 524.10938266 -0.1166578 528.1671505 -0.1160078 C529.6658408 -0.11575309 529.6658408 -0.11575309 531.19480767 -0.11549323 C546.28025273 -0.11318977 561.36567009 -0.1211695 576.45110893 -0.13429928 C593.60613121 -0.1492037 610.76108855 -0.15006281 627.91610943 -0.13222837 C637.51624586 -0.122659 647.11623088 -0.12411324 656.71635723 -0.14146306 C663.13050694 -0.15194544 669.54454121 -0.14786216 675.95867954 -0.13198302 C679.61221088 -0.12334421 683.26544533 -0.12094343 686.91896151 -0.13625234 C690.85960809 -0.15260831 694.79979936 -0.13787438 698.740448 -0.12025452 C699.86761146 -0.12990503 700.99477492 -0.13955554 702.15609485 -0.14949849 C716.25918645 -0.01994104 727.0116879 5.19746455 737.24606514 14.69281673 C747.12347641 25.12932676 749.95985161 36.8665791 749.87638187 50.86863422 C749.88104179 52.09727168 749.88570171 53.32590914 749.89050284 54.59177804 C749.90036949 57.99123074 749.89688347 61.39018677 749.88766916 64.78960909 C749.88094427 68.49206167 749.89163303 72.19447164 749.900065 75.89691508 C749.91242813 82.38239668 749.91364588 88.86780592 749.90751457 95.35329533 C749.89842137 104.99756806 749.90645727 114.64177391 749.91780581 124.28604151 C749.93747499 141.51158775 749.93981965 158.7371039 749.93461061 175.96265869 C749.93005396 191.03824917 749.93065196 206.11382774 749.93645096 221.18941784 C749.93720782 223.21140431 749.9379638 225.23339077 749.9387189 227.25537724 C749.93986409 230.30230548 749.94101397 233.34923371 749.94217815 236.39616194 C749.95288367 264.72489793 749.95760785 293.05362994 749.94970798 321.38236713 C749.94926222 322.98428491 749.94926222 322.98428491 749.94880746 324.61856467 C749.94635851 333.29110802 749.94374693 341.96365132 749.94112333 350.63619462 C749.93102061 384.4659599 749.93937656 418.29567556 749.96261787 452.12543392 C749.9886869 490.13267334 750.00153938 528.13988287 749.99443012 566.14713156 C749.99371406 570.1992824 749.99303967 574.25143325 749.99238968 578.3035841 C749.99221987 579.30132782 749.99205006 580.29907153 749.99187511 581.32704991 C749.98957165 596.39156341 749.99755134 611.45604917 750.01068115 626.52055645 C750.02558563 643.65179019 750.02644461 660.7829589 750.00861024 677.91419123 C749.99904092 687.50099703 750.000495 697.0876512 750.01784493 706.67444691 C750.02832741 713.0797108 750.0242439 719.48485909 750.00836489 725.89011158 C749.99972618 729.53856786 749.99732506 733.18672684 750.01263421 736.83516793 C750.02899056 740.77036889 750.01425603 744.70511393 749.99663639 748.64031696 C750.0062869 749.76587608 750.01593741 750.89143519 750.02588037 752.05110216 C749.89619728 766.14882045 744.67484106 776.90033302 735.18356514 787.13031673 C724.74151099 797.01297512 713.00084124 799.84402451 698.99213028 799.76063347 C697.76180445 799.76529339 696.53147861 799.76995331 695.26387018 799.77475443 C691.85968254 799.78462123 688.45599087 799.78113496 685.05183358 799.77192076 C681.344248 799.76519596 677.63670498 799.77588458 673.92912853 799.7843166 C667.43463458 799.79667981 660.94021288 799.79789744 654.44571114 799.79176617 C644.78803718 799.78267302 635.13043002 799.79070882 625.47276119 799.80205741 C608.22328673 799.82172666 590.97384233 799.82407123 573.72435934 799.81886221 C558.62782947 799.81430557 543.53131151 799.81490354 528.43478203 799.82070255 C526.40999217 799.82145942 524.3852023 799.8222154 522.36041244 799.8229705 C519.3092603 799.82411569 516.25810816 799.82526557 513.20695603 799.82642974 C484.83892421 799.83713528 456.47089635 799.84185943 428.10286331 799.83395958 C427.03343526 799.83366241 425.96400722 799.83336523 424.86217226 799.83305905 C416.17758525 799.8306101 407.49299829 799.82799852 398.80841134 799.82537492 C364.93165341 799.8152722 331.05494506 799.82362816 297.17819405 799.84686947 C259.11821693 799.87293845 221.05826965 799.88579098 182.99828327 799.87868172 C178.94051544 799.87796565 174.88274762 799.87729127 170.82497978 799.87664127 C169.32628948 799.87638656 169.32628948 799.87638656 167.79732261 799.8761267 C152.71187755 799.87382323 137.62646019 799.88180297 122.54102135 799.89493275 C105.38599907 799.90983717 88.23104173 799.91069628 71.07602085 799.89286184 C61.47588442 799.88329247 51.8758994 799.88474671 42.27577305 799.90209652 C35.86162334 799.91257891 29.44758907 799.90849563 23.03345074 799.89261649 C19.3799194 799.88397768 15.72668495 799.8815769 12.07316877 799.8968858 C8.13252219 799.91324178 4.19233092 799.89850785 0.25168228 799.88088799 C-0.87548118 799.8905385 -2.00264464 799.90018901 -3.16396457 799.91013196 C-17.26705617 799.78057451 -28.01955762 794.56316892 -38.25393486 785.06781673 C-48.13134613 774.63130671 -50.96772133 762.89405436 -50.88425159 748.89199924 C-50.88891151 747.66336179 -50.89357143 746.43472433 -50.89837256 745.16885543 C-50.90823921 741.76940272 -50.90475319 738.3704467 -50.89553888 734.97102438 C-50.88881399 731.2685718 -50.89950275 727.56616183 -50.90793473 723.86371839 C-50.92029785 717.37823679 -50.9215156 710.89282754 -50.91538429 704.40733814 C-50.90629109 694.76306541 -50.91432699 685.11885956 -50.92567553 675.47459196 C-50.94534471 658.24904572 -50.94768937 641.02352957 -50.94248033 623.79797478 C-50.93792368 608.7223843 -50.93852168 593.64680573 -50.94432068 578.57121563 C-50.94507754 576.54922916 -50.94583352 574.5272427 -50.94658862 572.50525623 C-50.94773381 569.45832799 -50.94888369 566.41139975 -50.95004787 563.36447152 C-50.96075339 535.03573554 -50.96547757 506.70700353 -50.95757771 478.37826633 C-50.95728053 477.31032115 -50.95698336 476.24237596 -50.95667718 475.1420688 C-50.95422823 466.46952545 -50.95161665 457.79698215 -50.94899305 449.12443885 C-50.93889033 415.29467356 -50.94724628 381.46495791 -50.97048759 347.63519955 C-50.99655662 309.62796013 -51.0094091 271.6207506 -51.00229985 233.61350191 C-51.00158378 229.56135107 -51.00090939 225.50920022 -51.0002594 221.45704937 C-51.00008959 220.45930565 -50.99991978 219.46156193 -50.99974483 218.43358356 C-50.99744137 203.36907006 -51.00542107 188.3045843 -51.01855087 173.24007702 C-51.03345535 156.10884328 -51.03431433 138.97767457 -51.01647996 121.84644224 C-51.00691064 112.25963644 -51.00836473 102.67298227 -51.02571465 93.08618656 C-51.03619713 86.68092267 -51.03211362 80.27577438 -51.01623461 73.87052189 C-51.00759591 70.22206561 -51.00519478 66.57390663 -51.02050393 62.92546554 C-51.03686028 58.99026458 -51.02212575 55.05551953 -51.00450611 51.12031651 C-51.01415662 49.99475739 -51.02380714 48.86919827 -51.03375009 47.70953131 C-50.904067 33.61181302 -45.68271078 22.86030045 -36.19143486 12.63031673 C-25.74938072 2.74765835 -14.00871096 -0.08339105 0 0 Z " fill="#103D40" transform="translate(50.50393486022949,0.6196832656860352)"/>
<path d="M0 0 C7.9442643 5.65380874 13.44182977 12.53812145 16 22 C17.01641322 31.28331546 17.24926771 40.98622767 12 49 C11.59910156 49.76183594 11.19820312 50.52367187 10.78515625 51.30859375 C9.3640833 53.68528676 8.18854187 55.29780077 6 57 C0.83058651 58.20255238 -3.55880083 57.64053297 -8.375 55.5 C-14.83645957 52.82629259 -22.16354043 52.82629259 -28.625 55.5 C-29.73875 55.995 -30.8525 56.49 -32 57 C-36.47291262 57.75097502 -40.94037672 58.32222729 -44.8984375 55.78125 C-51.86873214 48.28022227 -54.34786812 37.57923444 -54.21484375 27.6171875 C-53.4107378 17.82171507 -48.00337347 9.28708708 -41.03125 2.60546875 C-28.77978956 -7.0778971 -13.42016413 -7.75178712 0 0 Z " fill="#5DCD51" transform="translate(594,388)"/>
<path d="M0 0 C5.28 0 10.56 0 16 0 C16.53625 1.36125 17.0725 2.7225 17.625 4.125 C19.35703806 8.48602441 21.2245355 12.77248088 23.125 17.0625 C25.42335158 22.37308509 27.01825673 27.30588905 28 33 C28.66 33 29.32 33 30 33 C30.09667969 32.36578125 30.19335938 31.7315625 30.29296875 31.078125 C31.26952475 26.82659945 32.78878688 22.83240118 34.3125 18.75 C34.60833984 17.94175781 34.90417969 17.13351562 35.20898438 16.30078125 C37.26092424 10.7609868 39.55420751 5.37750403 42 0 C46.62 0 51.24 0 56 0 C67 27.80898876 67 27.80898876 67 33 C67.66 33 68.32 33 69 33 C69.103125 32.175 69.20625 31.35 69.3125 30.5 C69.98736013 27.06434841 71.00211284 24.07464394 72.28125 20.83203125 C72.90561102 19.2405893 73.45939717 17.62180848 74 16 C74.66 16 75.32 16 76 16 C76.10957031 15.43152344 76.21914063 14.86304688 76.33203125 14.27734375 C76.49058594 13.50519531 76.64914062 12.73304688 76.8125 11.9375 C77.03873047 10.80634766 77.03873047 10.80634766 77.26953125 9.65234375 C78.18540942 6.32677543 79.64122179 3.17048249 81 0 C86.28 0 91.56 0 97 0 C94.97014287 8.11942854 91.99701509 16.05414282 88.4375 23.625 C86.21968396 28.34478976 84.56055235 33.12578305 82.96484375 38.0859375 C80.47934213 45.59275616 77.25163194 52.79995785 74 60 C69.71 60 65.42 60 61 60 C60.67386719 59.05898438 60.34773437 58.11796875 60.01171875 57.1484375 C59.57472656 55.90320313 59.13773438 54.65796875 58.6875 53.375 C58.25824219 52.14523437 57.82898438 50.91546875 57.38671875 49.6484375 C56.11147772 46.29329631 54.61685901 43.19931676 53 40 C52.24015195 38.05336587 51.50924341 36.09510205 50.8125 34.125 C50.46832031 33.15820312 50.12414062 32.19140625 49.76953125 31.1953125 C49.51558594 30.47085937 49.26164063 29.74640625 49 29 C46.65085508 31.34914492 46.26859643 32.95679446 45.375 36.125 C45.11460937 37.03507812 44.85421875 37.94515625 44.5859375 38.8828125 C44.39257812 39.58148438 44.19921875 40.28015625 44 41 C43.34 41 42.68 41 42 41 C42.05027344 41.69738281 42.10054687 42.39476562 42.15234375 43.11328125 C41.96914821 46.5846019 40.95559387 49.01061455 39.5625 52.1875 C39.11003906 53.23292969 38.65757812 54.27835937 38.19140625 55.35546875 C37.48825175 56.9162412 36.76556344 58.46887313 36 60 C32.04 60 28.08 60 24 60 C23.505 57.525 23.505 57.525 23 55 C22.34 55 21.68 55 21 55 C20.43732422 53.38544922 20.43732422 53.38544922 19.86328125 51.73828125 C14.6886563 36.9089339 14.6886563 36.9089339 8.859375 22.328125 C8 20 8 20 8 17 C7.34 17 6.68 17 6 17 C5.18710947 14.72930578 4.37467262 12.45845099 3.5625 10.1875 C3.21735352 9.22360352 3.21735352 9.22360352 2.86523438 8.24023438 C1.88582149 5.50071717 0.92004638 2.76013914 0 0 Z " fill="#F8F9F9" transform="translate(606,385)"/>
<path d="M0 0 C0.78793945 0.00507568 1.57587891 0.01015137 2.38769531 0.01538086 C9.55391766 0.29957901 14.04606814 2.57851529 19.125 7.6875 C19.72699219 8.26242187 20.32898438 8.83734375 20.94921875 9.4296875 C28.57914516 17.44757627 28.125 24.27342958 28.125 35.6875 C14.595 35.6875 1.065 35.6875 -12.875 35.6875 C-10.34143291 43.40367073 -10.34143291 43.40367073 -4.875 47.6875 C-0.14633775 49.26372075 4.65865466 49.62462604 9.38671875 47.828125 C10.7407097 47.13736437 12.08020088 46.41692172 13.3984375 45.66015625 C15.125 44.6875 15.125 44.6875 18.125 43.6875 C20.16796875 45.12109375 20.16796875 45.12109375 22.3125 47.125 C23.02792969 47.78371094 23.74335938 48.44242187 24.48046875 49.12109375 C25.02316406 49.63800781 25.56585938 50.15492188 26.125 50.6875 C24.79422917 53.78384797 23.53661733 55.42636163 20.75 57.3125 C20.16476562 57.71726562 19.57953125 58.12203125 18.9765625 58.5390625 C13.35516544 62.02575182 8.90538252 62.05390739 2.375 62.0625 C0.92867188 62.09923828 0.92867188 62.09923828 -0.546875 62.13671875 C-8.21558752 62.16797709 -13.37871707 60.62392063 -19.265625 55.6796875 C-27.08718672 46.77362353 -29.63381298 39.22687828 -29.25 27.3046875 C-28.28606619 18.00674265 -24.04384409 10.70839193 -16.875 4.6875 C-11.38614571 1.14374012 -6.49025126 -0.06050706 0 0 Z " fill="#F6F8F8" transform="translate(439.875,383.3125)"/>
<path d="M0 0 C0.68578125 -0.00322266 1.3715625 -0.00644531 2.078125 -0.00976562 C6.41143637 0.0357176 9.97301744 0.73316778 14 2.3125 C14 2.9725 14 3.6325 14 4.3125 C14.680625 4.4775 15.36125 4.6425 16.0625 4.8125 C21.47101903 7.57429695 25.48948453 12.51675879 27.9375 18.0625 C29 22.3125 29 22.3125 29 34.3125 C15.14 34.3125 1.28 34.3125 -13 34.3125 C-9.81940897 42.57225055 -9.81940897 42.57225055 -4 47.3125 C0.62706326 48.85485442 5.17326629 48.96251858 10 48.3125 C12.40933529 46.90623491 13.97907243 45.28413666 16 43.3125 C20 43.3125 20 43.3125 22.625 45.5625 C24.60917642 47.85996744 25.74492616 49.61812129 27 52.3125 C26.01394648 53.26465793 25.01006634 54.19835431 24 55.125 C23.443125 55.64707031 22.88625 56.16914063 22.3125 56.70703125 C13.23213581 63.01113545 1.57599498 62.61710464 -9 61.3125 C-16.7358527 58.92667627 -21.8530833 53.08658268 -26 46.3125 C-29.92219769 37.41418075 -30.13579722 28.00115788 -27.11328125 18.8046875 C-22.09185012 7.5637294 -12.46948772 -0.29298608 0 0 Z " fill="#F7F8F8" transform="translate(176,383.6875)"/>
<path d="M0 0 C8.64292176 4.45063498 13.88067062 9.06159875 17.11938477 18.28686523 C18.86600151 25.90557518 18.34088702 33.7716008 18.1875 41.54296875 C18.16739695 43.32354754 18.14915294 45.10414833 18.1328125 46.88476562 C18.09256525 51.20933219 18.01423165 55.53078786 17.9375 59.85546875 C12.6575 59.85546875 7.3775 59.85546875 1.9375 59.85546875 C1.94704712 58.13046143 1.94704712 58.13046143 1.95678711 56.37060547 C1.97126116 52.08736338 1.93981573 47.80545659 1.89477539 43.52246094 C1.88166821 41.6719213 1.88087163 39.82125059 1.89282227 37.97070312 C1.90787971 35.30338517 1.87808821 32.63967874 1.83984375 29.97265625 C1.85409897 29.15054657 1.86835419 28.32843689 1.88304138 27.48141479 C1.79611979 24.00154219 1.65559024 21.74164016 -0.5809021 18.98165894 C-5.18630552 14.89529551 -8.25179189 14.05262079 -14.3984375 14.3828125 C-18.59893287 15.12806168 -21.99951439 16.79248314 -25.0625 19.85546875 C-25.22279688 22.81076379 -25.32207328 25.74529332 -25.37890625 28.703125 C-25.39968735 29.58955185 -25.42046844 30.4759787 -25.44187927 31.38926697 C-25.507474 34.23208575 -25.56630552 37.07499992 -25.625 39.91796875 C-25.6681758 41.84050481 -25.71178978 43.76303109 -25.75585938 45.68554688 C-25.86316543 50.40875543 -25.96440451 55.13206028 -26.0625 59.85546875 C-31.0125 59.85546875 -35.9625 59.85546875 -41.0625 59.85546875 C-41.0625 40.05546875 -41.0625 20.25546875 -41.0625 -0.14453125 C-36.1125 -0.14453125 -31.1625 -0.14453125 -26.0625 -0.14453125 C-26.0625 1.17546875 -26.0625 2.49546875 -26.0625 3.85546875 C-25.49144531 3.49453125 -24.92039062 3.13359375 -24.33203125 2.76171875 C-16.45640146 -1.74579592 -8.70071413 -3.25166995 0 0 Z " fill="#FAFBFB" transform="translate(516.0625,385.14453125)"/>
<path d="M0 0 C0.71679932 -0.01047363 1.43359863 -0.02094727 2.17211914 -0.03173828 C9.08523644 0.08466296 14.49220524 2.61948335 20.25 6.375 C21.01054687 6.85839844 21.77109375 7.34179688 22.5546875 7.83984375 C24.375 9.4375 24.375 9.4375 25.375 13.4375 C22.405 16.0775 19.435 18.7175 16.375 21.4375 C12.375 19.4375 12.375 19.4375 9.8125 17.8125 C4.93377966 15.86101186 0.55494265 15.49910459 -4.625 16.4375 C-8.89662558 18.78613399 -11.81260425 21.90229575 -13.625 26.4375 C-14.32171833 31.34693384 -14.16159091 35.32304196 -12 39.8125 C-7.97909527 44.25665786 -4.81077761 46.65606017 1.25 47 C5.98634468 46.83593987 8.86513356 45.38122748 12.5859375 42.53125 C14.375 41.4375 14.375 41.4375 18.375 41.4375 C20.734375 42.96875 20.734375 42.96875 23.125 44.9375 C23.92421875 45.5871875 24.7234375 46.236875 25.546875 46.90625 C26.15015625 47.4115625 26.7534375 47.916875 27.375 48.4375 C26.04055255 51.46617241 24.64999524 53.36740267 22.125 55.5 C21.56296875 55.98597656 21.0009375 56.47195313 20.421875 56.97265625 C14.2511211 61.38874922 9.3832289 61.90609023 2 61.8125 C1.0925 61.82410156 0.185 61.83570313 -0.75 61.84765625 C-10.48744547 61.80556355 -16.56866433 59.22084243 -23.64453125 52.546875 C-29.31297353 46.50948085 -31.5583189 39.34387757 -32 31.1875 C-31.69863504 22.43284804 -28.96997746 15.30772115 -22.9375 8.9375 C-15.50623113 2.23858806 -9.88213761 0.13782619 0 0 Z " fill="#F8F9F9" transform="translate(380.625,383.5625)"/>
<path d="M0 0 C0.99 0.66 1.98 1.32 3 2 C1.61735163 4.86867231 0.07851447 7.56024032 -1.625 10.25 C-2.29402344 11.30960937 -2.29402344 11.30960937 -2.9765625 12.390625 C-3.31429687 12.92171875 -3.65203125 13.4528125 -4 14 C-9.75 12.125 -9.75 12.125 -12 11 C-17.88165736 10.53411718 -17.88165736 10.53411718 -23 13 C-22.8378418 15.44986305 -22.8378418 15.44986305 -22 18 C-20.1198496 19.26634971 -20.1198496 19.26634971 -17.6875 19.9375 C-13.55045749 21.41373963 -9.58605306 23.03230638 -5.625 24.9375 C-4.64789063 25.40027344 -3.67078125 25.86304688 -2.6640625 26.33984375 C0.90290937 28.56266346 3.12600387 31.25200774 5 35 C5.68048525 40.02631154 6.14479091 44.91224548 3.6484375 49.46484375 C-0.18313285 53.99689943 -4.27980706 57.53354563 -10.38134766 58.29858398 C-13.17743341 58.44020657 -15.9505405 58.45830679 -18.75 58.4375 C-19.6884375 58.45748047 -20.626875 58.47746094 -21.59375 58.49804688 C-29.68539881 58.49245872 -36.25768709 56.49487527 -43 52 C-41.61735163 49.13132769 -40.07851447 46.43975968 -38.375 43.75 C-37.92898437 43.04359375 -37.48296875 42.3371875 -37.0234375 41.609375 C-36.68570313 41.07828125 -36.34796875 40.5471875 -36 40 C-31.27868852 41.83606557 -31.27868852 41.83606557 -29.20703125 43.0546875 C-26.35224175 44.27744689 -24.03437599 44.26535007 -20.9375 44.25 C-19.37322266 44.25773437 -19.37322266 44.25773437 -17.77734375 44.265625 C-14.78871015 44.20072577 -14.78871015 44.20072577 -12 42 C-11.27617533 39.94074861 -11.27617533 39.94074861 -11 38 C-15.3039919 36.25150329 -19.64750591 34.6229639 -24 33 C-24 32.34 -24 31.68 -24 31 C-24.86625 30.9175 -25.7325 30.835 -26.625 30.75 C-31.76919632 29.60684526 -34.82491618 27.26785359 -38.375 23.4375 C-40.68890107 18.54270927 -40.86731455 14.3200455 -40 9 C-37.98860946 3.82647144 -33.78805257 0.35281867 -28.921875 -2.12109375 C-19.6336883 -4.91500018 -8.76226962 -3.92791397 0 0 Z " fill="#F8F9F9" transform="translate(140,387)"/>
<path d="M0 0 C5.28 0 10.56 0 16 0 C18.59402988 5.04394699 21.07295506 10.02331441 23.125 15.3125 C24.47653346 18.79405019 26.04018603 21.8153023 28 25 C29.3914431 27.97515834 30.70465689 30.9819163 32 34 C34.86201308 30.62993726 36.33852959 26.96302638 37.875 22.875 C40.25552453 16.73492954 42.83393009 10.78517757 46 5 C46.37382812 4.09121094 46.74765625 3.18242187 47.1328125 2.24609375 C49 0 49 0 52.79296875 -0.48828125 C54.25860885 -0.45512197 55.72384139 -0.39558979 57.1875 -0.3125 C57.93708984 -0.28994141 58.68667969 -0.26738281 59.45898438 -0.24414062 C61.3068447 -0.18529157 63.15367667 -0.09560938 65 0 C63.08542314 6.38192285 60.5751498 12.09775897 57.5 18.0078125 C55.85574384 21.28776099 54.42665515 24.61975928 53 28 C48.89113888 37.44550492 44.7399727 46.85075038 40 56 C39.34 57.32 38.68 58.64 38 60 C34.04 60 30.08 60 26 60 C25.34895833 58.17708333 24.69791667 56.35416667 24.046875 54.53125 C23.1687951 52.40813144 22.21673749 50.40246813 21.1796875 48.35546875 C18.75887227 43.57513885 16.5630606 38.70281544 14.375 33.8125 C13.98054688 32.93658203 13.58609375 32.06066406 13.1796875 31.15820312 C11.37274694 27.13226631 9.63120762 23.1006747 8 19 C7.39141878 17.74192453 6.76691872 16.49139653 6.125 15.25 C0 3.13815789 0 3.13815789 0 0 Z " fill="#F8F9F9" transform="translate(255,385)"/>
<path d="M0 0 C0.66 0.33 1.32 0.66 2 1 C2 5.95 2 10.9 2 16 C0.90300781 16.08636719 -0.19398438 16.17273438 -1.32421875 16.26171875 C-2.77875906 16.40248072 -4.23318067 16.54447295 -5.6875 16.6875 C-6.40873047 16.74099609 -7.12996094 16.79449219 -7.87304688 16.84960938 C-8.57880859 16.92373047 -9.28457031 16.99785156 -10.01171875 17.07421875 C-10.65584717 17.13182373 -11.29997559 17.18942871 -11.96362305 17.2487793 C-15.30943817 18.48305254 -16.8380187 20.18114438 -19 23 C-19.71981625 25.93703625 -19.7217463 28.78717328 -19.70703125 31.80078125 C-19.72215256 32.63715622 -19.73727386 33.47353119 -19.75285339 34.33525085 C-19.79568438 36.99460913 -19.80456356 39.65283138 -19.8125 42.3125 C-19.83564801 44.12047281 -19.86101399 45.92841868 -19.88867188 47.73632812 C-19.95147838 52.1576523 -19.98384958 56.57826919 -20 61 C-25.28 61 -30.56 61 -36 61 C-36 41.2 -36 21.4 -36 1 C-30.72 1 -25.44 1 -20 1 C-20 2.32 -20 3.64 -20 5 C-19.39414063 4.6390625 -18.78828125 4.278125 -18.1640625 3.90625 C-11.98233439 0.48252366 -7.0702387 -0.9517629 0 0 Z " fill="#F6F8F8" transform="translate(248,384)"/>
<path d="M0 0 C5.28 0 10.56 0 16 0 C16 19.8 16 39.6 16 60 C10.72 60 5.44 60 0 60 C0 40.2 0 20.4 0 0 Z " fill="#F8F9F9" transform="translate(326,385)"/>
<path d="M0 0 C11.89320331 -1.21808057 11.89320331 -1.21808057 16.8984375 1.67578125 C21.06441222 5.36314075 23.73334333 7.97060532 24.23828125 13.70703125 C24.38837002 19.98706119 24.47416284 24.1630672 20 29 C14.51503105 33.83199646 11.19696221 34.34086141 3.98828125 34.2890625 C0.0583625 33.9089135 -2.0831885 32.61765134 -5 30 C-5.5775 29.525625 -6.155 29.05125 -6.75 28.5625 C-10.70348008 23.6206499 -10.46941261 18.04243893 -10 12 C-8.89886374 7.49535168 -6.50397573 4.9911988 -3 2 C-2.01 2 -1.02 2 0 2 C0 1.34 0 0.68 0 0 Z " fill="#113E40" transform="translate(568,402)"/>
<path d="M0 0 C0 0.66 0 1.32 0 2 C0.61875 2.28875 1.2375 2.5775 1.875 2.875 C4 4 4 4 6 6 C6.77200992 10.56922148 6.59362988 14.05019219 4.125 18 C0.62142946 21.29747816 -2.06242886 21.41854976 -6.734375 21.328125 C-9 21 -9 21 -12.0625 19.125 C-14.79917743 14.71100414 -15.1210866 11.05698774 -14 6 C-10.69567077 -0.09198153 -6.47878306 -0.67021894 0 0 Z " fill="#F4F6F6" transform="translate(338,356)"/>
<path d="M0 0 C3.63467079 1.62400184 4.77408696 2.66113044 7 6 C7 7.32 7 8.64 7 10 C-0.92 10 -8.84 10 -17 10 C-13.43404061 1.08510154 -9.1549489 -0.90282368 0 0 Z " fill="#194447" transform="translate(444,397)"/>
<path d="M0 0 C3.4375 1.625 3.4375 1.625 6 4 C6.66 5.98 7.32 7.96 8 10 C0.08 10 -7.84 10 -16 10 C-15.04661295 5.23306474 -14.63123719 3.80642055 -10.875 0.953125 C-7.30572921 -0.86125432 -3.86775397 -0.74033931 0 0 Z " fill="#1A4548" transform="translate(181,397)"/>
<path d="M0 0 C0.66 0.33 1.32 0.66 2 1 C-0.64 3.64 -3.28 6.28 -6 9 C-6 6 -6 6 -3.5625 3.375 C-2.716875 2.59125 -1.87125 1.8075 -1 1 C-0.67 0.67 -0.34 0.34 0 0 Z " fill="#D3DBDC" transform="translate(108,387)"/>
</svg>
