<svg version="1.1" id="Layer_1" xmlns="http://www.w3.org/2000/svg" xmlns:xlink="http://www.w3.org/1999/xlink" x="0px" y="0px" viewBox="0 0 500 500" style="width: 188px;" xml:space="preserve" data-imageid="report-analysis-2-83" imageName="Report Analysis 2" class="illustrations_image">
<style type="text/css">
	.st0_report-analysis-2-83{fill:#FFFFFF;}
	.st1_report-analysis-2-83{fill:#093F68;}
	.st2_report-analysis-2-83{fill:#FFBC0E;}
	.st3_report-analysis-2-83{fill:#68E1FD;}
	.st4_report-analysis-2-83{fill:#FFC9B0;}
	.st5_report-analysis-2-83{fill:#725858;}
	.st6_report-analysis-2-83{fill:#F56132;}
	.st7_report-analysis-2-83{fill:#70CC40;}
	.st8_report-analysis-2-83{fill:#DFEAEF;}
</style>
<g id="workspace_report-analysis-2-83">
	<rect x="332.1" y="358.6" class="st0_report-analysis-2-83" width="97.7" height="45.8"/>
	<path class="st1_report-analysis-2-83" d="M429.8,406.5h-97.7c-1.1,0-2.1-0.9-2.1-2.1v-45.8c0-1.1,0.9-2.1,2.1-2.1h97.7c1.1,0,2.1,0.9,2.1,2.1v45.8&#10;&#9;&#9;C431.8,405.5,430.9,406.5,429.8,406.5z M334.1,402.3h93.5v-41.6h-93.5V402.3z"/>
	<rect x="217" y="358.6" class="st1_report-analysis-2-83" width="117.5" height="45.8"/>
	<path class="st1_report-analysis-2-83" d="M334.5,406.5H217c-1.1,0-2.1-0.9-2.1-2.1v-45.8c0-1.1,0.9-2.1,2.1-2.1h117.5c1.1,0,2.1,0.9,2.1,2.1v45.8&#10;&#9;&#9;C336.5,405.5,335.6,406.5,334.5,406.5z M219,402.3h113.4v-41.6H219V402.3z"/>
	<rect x="136.9" y="348.6" class="st0_report-analysis-2-83" width="299.8" height="16.6"/>
	<path class="st1_report-analysis-2-83" d="M436.7,367.2H136.9c-1.1,0-2.1-0.9-2.1-2.1v-16.6c0-1.1,0.9-2.1,2.1-2.1h299.8c1.1,0,2.1,0.9,2.1,2.1v16.6&#10;&#9;&#9;C438.8,366.3,437.8,367.2,436.7,367.2z M139,363.1h295.7v-12.5H139V363.1z"/>
	<path class="st1_report-analysis-2-83" d="M463.8,406.5H36.2c-1.1-0.1-2-1.1-1.9-2.2c0.1-1,0.9-1.8,1.9-1.9h427.7c1.1,0.1,2,1.1,1.9,2.2&#10;&#9;&#9;C465.7,405.6,464.9,406.4,463.8,406.5z"/>
</g>
<g id="device_report-analysis-2-83">
	<rect x="221.7" y="338.6" class="st2_report-analysis-2-83" width="104.7" height="9.9"/>
	<path class="st1_report-analysis-2-83" d="M326.4,350.6H221.7c-1.1,0-2.1-0.9-2.1-2.1v-9.9c0-1.1,0.9-2.1,2.1-2.1h104.7c1.1,0,2.1,0.9,2.1,2.1v9.9&#10;&#9;&#9;C328.4,349.7,327.5,350.6,326.4,350.6z M223.8,346.5h100.5v-5.8H223.8V346.5z"/>
	<path class="st1_report-analysis-2-83" d="M296.7,205.4h135.2c2.7,0,4.8,2.2,4.8,4.8V312c0,2.7-2.2,4.8-4.8,4.8H296.7c-2.7,0-4.8-2.2-4.8-4.8V210.2&#10;&#9;&#9;C291.8,207.5,294,205.4,296.7,205.4z"/>
	<path class="st1_report-analysis-2-83" d="M426.8,318.9h-125c-6.6,0-12-5.4-12-12v-91.6c0-6.6,5.4-12,12-12h125c6.6,0,12,5.4,12,12v91.6&#10;&#9;&#9;C438.8,313.5,433.4,318.9,426.8,318.9C426.8,318.9,426.8,318.9,426.8,318.9z M301.8,207.4c-4.3,0-7.9,3.5-7.9,7.9v91.6&#10;&#9;&#9;c0,4.4,3.5,7.9,7.9,7.9l0,0h125c4.3,0,7.9-3.5,7.9-7.9v-91.6c0-4.3-3.5-7.9-7.9-7.9L301.8,207.4z"/>
	<path class="st3_report-analysis-2-83 targetColor" d="M426.2,215.3v91.6c0,5.5-4.5,9.9-9.9,10h-125c-5.5,0-9.9-4.5-9.9-9.9c0,0,0,0,0,0v-91.6c0-5.5,4.4-9.9,9.9-9.9&#10;&#9;&#9;c0,0,0,0,0,0h125C421.8,205.4,426.2,209.8,426.2,215.3C426.2,215.3,426.2,215.3,426.2,215.3z" style="fill: rgb(104, 225, 253);"/>
	<path class="st1_report-analysis-2-83" d="M416.3,318.9h-125c-6.6,0-12-5.4-12-12v-91.6c0-6.6,5.4-12,12-12h125c6.6,0,12,5.4,12,12v91.6&#10;&#9;&#9;C428.3,313.5,422.9,318.9,416.3,318.9C416.3,318.9,416.3,318.9,416.3,318.9z M291.3,207.4c-4.3,0-7.9,3.5-7.9,7.9v91.6&#10;&#9;&#9;c0,4.3,3.5,7.9,7.9,7.9h125c4.4,0,7.9-3.5,7.9-7.9v-91.6c0-4.3-3.5-7.9-7.9-7.9L291.3,207.4z"/>
	<rect x="346.5" y="316.8" class="st1_report-analysis-2-83" width="14.7" height="21.8"/>
	<path class="st1_report-analysis-2-83" d="M361.2,340.7h-14.7c-1.1,0-2.1-0.9-2.1-2.1v-21.8c0-1.1,0.9-2.1,2.1-2.1h14.7c1.1,0,2.1,0.9,2.1,2.1v21.8&#10;&#9;&#9;C363.2,339.8,362.3,340.7,361.2,340.7z M348.5,336.6h10.6v-17.7h-10.6L348.5,336.6z"/>
	<path class="st1_report-analysis-2-83" d="M336.5,337.7h34.7c1.1,0,2,0.9,2,2v7.1l0,0h-38.7l0,0v-7.1C334.4,338.6,335.3,337.7,336.5,337.7&#10;&#9;&#9;C336.5,337.7,336.5,337.7,336.5,337.7z"/>
	<path class="st1_report-analysis-2-83" d="M373.2,348.9h-38.7c-1.1,0-2.1-0.9-2.1-2.1l0,0v-4.9c0-3.4,2.8-6.2,6.2-6.2H369c3.4,0,6.2,2.8,6.2,6.2v4.9&#10;&#9;&#9;C375.2,348,374.3,348.9,373.2,348.9z M336.5,344.8h34.6v-2.9c0-1.2-0.9-2.1-2.1-2.1h-30.4c-1.2,0-2.1,0.9-2.1,2.1c0,0,0,0,0,0&#10;&#9;&#9;V344.8z"/>
	<path class="st0_report-analysis-2-83" d="M426.2,215.3V297H281.4v-81.7c0-5.5,4.4-9.9,9.9-9.9c0,0,0,0,0,0h125C421.8,205.4,426.2,209.8,426.2,215.3&#10;&#9;&#9;C426.2,215.3,426.2,215.3,426.2,215.3z"/>
	<path class="st1_report-analysis-2-83" d="M426.2,299H281.4c-1.1,0-2.1-0.9-2.1-2.1v-81.6c0-6.6,5.4-12,12-12h125c6.6,0,12,5.4,12,12V297&#10;&#9;&#9;C428.3,298.1,427.4,299,426.2,299z M283.5,294.9h140.7v-79.6c0-4.3-3.5-7.9-7.9-7.9h-125c-4.3,0-7.9,3.5-7.9,7.9V294.9z"/>
</g>
<g id="character_report-analysis-2-83">
	<path class="st4_report-analysis-2-83" d="M226.9,336.2c0,0,6.4-6.4,11.4-7.4s13.4-2.5,14.2,0s-0.2,8.8-5.5,10.1S224.8,344,226.9,336.2z"/>
	<path class="st1_report-analysis-2-83" d="M233.4,343c-5.2,0-6.7-1.5-7.4-2.2c-1.3-1.4-1.8-3.4-1.1-5.2c0.1-0.3,0.3-0.7,0.5-0.9c0.7-0.7,7-6.9,12.5-7.9&#10;&#9;&#9;c8.3-1.6,15.4-2.6,16.5,1.4c0.6,2.8,0.2,5.8-1.2,8.3c-1.2,2.2-3.3,3.8-5.7,4.4C242.9,342.1,238.2,342.8,233.4,343z M228.8,337.2&#10;&#9;&#9;c-0.1,0.3,0,0.6,0.2,0.8c0.9,1,5.7,1.8,17.6-1.1c1.3-0.3,2.5-1.2,3.1-2.4c0.8-1.5,1.1-3.1,0.9-4.8c-0.9-0.4-3.8-0.4-11.9,1.1&#10;&#9;&#9;C235.4,331.5,230.8,335.3,228.8,337.2L228.8,337.2z"/>
	<path class="st4_report-analysis-2-83" d="M253,204.3c0,0,9.4,18.1,4.7,19.3s-11.4,0-11.4,0"/>
	<path class="st1_report-analysis-2-83" d="M252.7,226.1c-2.2,0-4.5-0.2-6.7-0.6c-1.1-0.2-1.9-1.3-1.7-2.4s1.3-1.9,2.4-1.7l0,0c0.1,0,6,1,10.2,0.1&#10;&#9;&#9;c0.5-1.9-2.1-9.4-5.8-16.4c-0.5-1-0.1-2.3,0.9-2.8s2.3-0.1,2.8,0.9c1.9,3.6,7.8,15.7,5.8,20.1c-0.4,1-1.3,1.8-2.4,2.1&#10;&#9;&#9;C256.4,226,254.6,226.2,252.7,226.1z"/>
	<path class="st4_report-analysis-2-83" d="M166,271h25.3l0,0v20.1c0,2.9-2.3,5.2-5.2,5.2h-14.9c-2.9,0-5.2-2.3-5.2-5.2V271L166,271z"/>
	<path class="st1_report-analysis-2-83" d="M180.5,298.4h-3.8c-7.1,0-12.8-5.7-12.8-12.8V271c0-1.1,0.9-2,2.1-2h25.3c1.1,0,2.1,0.9,2.1,2.1v14.6&#10;&#9;&#9;C193.3,292.7,187.6,298.4,180.5,298.4z M168.1,273.1v12.5c0,4.8,3.9,8.7,8.7,8.7h3.8c4.8,0,8.7-3.9,8.7-8.7v-12.5H168.1z"/>
	<path class="st4_report-analysis-2-83" d="M178.6,266.2v8.1c-41-0.1-74.1-33.3-74.1-74.3c0,0,0,0,0,0v-34.4c0-17.9,27.2-51.2,45-51.2&#10;&#9;&#9;c0,0,2.9,16.9,30.9,31.7c19.6,10.3,47.2,11,72.3-6.5v60.4C252.7,261,219.6,266.2,178.6,266.2z"/>
	<path class="st1_report-analysis-2-83" d="M178.6,276.4c-42.1-0.1-76.2-34.3-76.1-76.4v-34.4c0-9,6.2-21.9,16.3-33.6c10.5-12.3,22-19.6,30.7-19.6&#10;&#9;&#9;c1,0,1.8,0.7,2,1.7c0,0.2,3.2,16.1,29.8,30.2c16.8,8.9,44,11.9,70.2-6.4c0.9-0.7,2.2-0.4,2.9,0.5c0.2,0.3,0.4,0.8,0.4,1.2v60.4&#10;&#9;&#9;c0,61.9-34.8,68-74.1,68.2v6.1C180.7,275.5,179.8,276.4,178.6,276.4z M148,116.6c-7.3,0.9-17.1,7.6-26,18.1&#10;&#9;&#9;c-9.3,10.9-15.3,23.1-15.3,31v34.4c0,39,31,71,70,72.2v-6c0-1.1,0.9-2.1,2.1-2.1c40.8,0,72-4.7,72-64.1v-56.6&#10;&#9;&#9;c-26.6,16.9-54,13.5-71.2,4.5C155.9,135.5,149.6,121.5,148,116.6z"/>
	<path class="st1_report-analysis-2-83" d="M244.4,183.5L244.4,183.5l-32.7-0.2c-2.3-0.1-4-2-3.9-4.3c0.1-2.1,1.8-3.8,3.9-3.9l0,0l32.7,0.2&#10;&#9;&#9;c2.3,0.1,4,2,3.9,4.3C248.2,181.7,246.6,183.4,244.4,183.5L244.4,183.5z"/>
	<ellipse class="st1_report-analysis-2-83" cx="234.6" cy="198.9" rx="6.6" ry="6.5"/>
	<path class="st3_report-analysis-2-83 targetColor" d="M235.6,312.1c-0.1-21.7-17.7-39.3-39.4-39.2c-0.1,0-0.1,0-0.2,0h-38c-22.4,0-40.5,18.2-40.6,40.5v91h118.2&#10;&#9;&#9;V312.1z" style="fill: rgb(104, 225, 253);"/>
	<path class="st1_report-analysis-2-83" d="M235.6,406.5H117.4c-1.1,0-2.1-0.9-2.1-2.1v-91c0-23.5,19.1-42.6,42.6-42.6h38.1c11,0,21.6,4.4,29.4,12.2&#10;&#9;&#9;c7.8,7.7,12.1,18.2,12.1,29.1v92.3C237.6,405.6,236.7,406.5,235.6,406.5z M119.5,402.3h114v-90.2c0-9.8-3.9-19.3-10.9-26.2&#10;&#9;&#9;c-7-7-16.6-11-26.6-10.9H158c-21.2,0-38.5,17.2-38.5,38.5L119.5,402.3z"/>
	<path class="st1_report-analysis-2-83" d="M230.4,236.6c-6.7,0-14.3-2.6-17.8-12c-0.4-1.1,0.2-2.3,1.2-2.6s2.3,0.2,2.6,1.2c5,13.6,20.5,8.3,21.2,8.1&#10;&#9;&#9;c1.1-0.4,2.3,0.2,2.6,1.3c0.4,1.1-0.2,2.3-1.3,2.6C236.3,236.1,233.4,236.6,230.4,236.6z"/>
	<path class="st5_report-analysis-2-83" d="M259,160.5l-22.7,4.8l-8.2-17.9l-2.3,20.1l-29,6.1c0,0,0.6,27,1.2,58.1c0.6,32,4.1,46,4.1,46l-112.8-5.2&#10;&#9;&#9;c0,0-9.1-117.2,19.8-146.9c11.9-12.3,19.7-6.9,19.7-6.9s3.4-8.1,8.1-13.3c14.2-15.7,79.2-12.9,101.5,9.1&#10;&#9;&#9;C255.8,131.6,259,160.5,259,160.5z"/>
	<path class="st1_report-analysis-2-83" d="M202,279.8L202,279.8l-112.9-5.2c-1.1,0-1.9-0.8-2-1.9c-1.4-20.8-1.7-41.7-0.9-62.6c1.8-44.3,9-73.3,21.3-86&#10;&#9;&#9;c9.4-9.7,16.7-9.2,20.2-8.1c2-4.3,4.6-8.4,7.7-12c5.6-6.2,18.7-10.1,35.9-10.6c23.6-0.7,53.9,5.1,68.6,19.6&#10;&#9;&#9;c17.7,17.5,21.1,46.1,21.3,47.3c0.1,1.1-0.6,2-1.6,2.2l-22.7,4.8c-0.9,0.2-1.9-0.3-2.3-1.1l-5.2-11.2l-1.5,12.8&#10;&#9;&#9;c-0.1,0.9-0.8,1.6-1.6,1.8l-27.4,5.7c0.1,6.4,0.6,29.9,1.1,56.4c0.6,31.3,4,45.4,4,45.5c0.3,1.1-0.4,2.2-1.5,2.5&#10;&#9;&#9;C202.3,279.8,202.1,279.8,202,279.8L202,279.8z M91.1,270.5l108.3,5c-1-5.5-3.1-19.4-3.6-43.8c-0.6-31.1-1.2-58.1-1.2-58.1&#10;&#9;&#9;c0-1,0.7-1.9,1.6-2.1l27.6-5.8l2.1-18.6c0.1-1.1,1.1-1.9,2.3-1.8c0.7,0.1,1.3,0.5,1.6,1.2l7.6,16.4l19.2-4c-1.1-6.6-5.6-29-19.8-43&#10;&#9;&#9;c-13.7-13.6-43.6-19.1-65.6-18.4c-15.8,0.4-28.1,3.9-32.9,9.2c-4.4,4.9-7.7,12.7-7.8,12.8c-0.4,1-1.6,1.5-2.7,1.1&#10;&#9;&#9;c-0.1-0.1-0.3-0.1-0.4-0.2c-0.2-0.2-6.7-4.1-17.1,6.6C84.5,153.8,90.1,255.6,91.1,270.5z"/>
	<path class="st4_report-analysis-2-83" d="M206.5,196.7c0,0-12.3-18.8-22.2,1s3.5,33.2,20.3,34.3"/>
	<path class="st1_report-analysis-2-83" d="M204.6,234.1h-0.1c-10.1-0.6-18.6-5.4-22.8-12.7c-2.8-4.9-5-13.1,0.8-24.6c3.2-6.5,7.2-9.9,11.8-10.2&#10;&#9;&#9;c7.7-0.4,13.8,8.6,14,9c0.6,0.9,0.4,2.2-0.6,2.9c-0.9,0.6-2.2,0.4-2.9-0.6l0,0c-1.4-2.1-5.9-7.4-10.3-7.1c-3,0.2-5.8,2.8-8.3,7.9&#10;&#9;&#9;c-3.9,7.8-4.2,14.9-0.9,20.7c3.5,6.1,10.8,10.1,19.5,10.7c1.1,0.1,2,1.1,1.9,2.3C206.5,233.3,205.7,234.1,204.6,234.1L204.6,234.1z&#10;&#9;&#9;"/>
	<path class="st3_report-analysis-2-83 targetColor" d="M196.1,304.4c0.9,9.1,3.1,79.3,52.5,79.3c33.6,0,48.4-27.2,51.3-30.9l-18.1-19.5c-7.9,7-20.5,14.5-32.7,14.5&#10;&#9;&#9;c-9.1,0-11.8-14.5-14.2-39.2" style="fill: rgb(104, 225, 253);"/>
	<path class="st1_report-analysis-2-83" d="M248.6,385.8c-22.1,0-49.5-13.7-54.4-79.1c-0.1-0.9-0.1-1.5-0.2-2c-0.1-1.1,0.7-2.1,1.9-2.2&#10;&#9;&#9;c1.1-0.1,2.1,0.7,2.3,1.9c0.1,0.5,0.1,1.2,0.2,2.1c3.6,49.3,21,75.3,50.3,75.3s43.7-21.4,48.4-28.4c0.1-0.1,0.1-0.2,0.2-0.3&#10;&#9;&#9;l-15.7-16.8c-5.4,4.5-18.2,13.8-32.6,13.8c-11.4,0-13.4-18.1-15.7-41.4c-0.1-1.1,0.7-2.2,1.8-2.3s2.2,0.7,2.3,1.8c0,0,0,0,0,0.1&#10;&#9;&#9;c2.3,23.7,4.4,37.7,11.6,37.7c11.5,0,23.7-7.2,31.3-14c0.8-0.7,2.1-0.7,2.9,0.1l18.1,19.5c0.7,0.7,0.7,1.9,0.1,2.7&#10;&#9;&#9;c-0.2,0.3-0.6,0.9-1.1,1.5C295.4,363.1,280.1,385.8,248.6,385.8z"/>
	<path class="st1_report-analysis-2-83" d="M109.2,285.1h52.2c13.8,0,25.6,10.1,27.7,23.8l10.4,95.7H90.6l-9.1-87.2c-2.4-15.3,8.1-29.6,23.4-31.9&#10;&#9;&#9;C106.3,285.2,107.8,285.1,109.2,285.1z"/>
	<path class="st1_report-analysis-2-83" d="M199.5,406.7H90.6c-1,0-1.9-0.8-2-1.8l-9.1-87.2c-2.5-16.4,8.9-31.7,25.3-34.2c1.5-0.2,3-0.3,4.5-0.3h52.2&#10;&#9;&#9;c14.9-0.1,27.6,10.8,29.7,25.5l10.4,95.8c0.2,1.1-0.6,2.1-1.7,2.3C199.8,406.7,199.7,406.7,199.5,406.7L199.5,406.7z M92.5,402.6&#10;&#9;&#9;h104.7L187,309.1c-1.9-12.7-12.8-22-25.6-22h-52.1c-14.4,0-26,11.7-26,26c0,1.3,0.1,2.6,0.3,3.9L92.5,402.6z"/>
	<path class="st2_report-analysis-2-83" d="M97.6,285.1h52.2c13.8,0,25.6,10.1,27.7,23.8l10.4,95.7H79l-9.1-87.2c-2.4-15.3,8.1-29.6,23.4-31.9&#10;&#9;&#9;C94.7,285.2,96.2,285.1,97.6,285.1z"/>
	<path class="st1_report-analysis-2-83" d="M187.9,406.7H79c-1,0-1.9-0.8-2-1.8l-9.1-87.2c-2.5-16.4,8.9-31.7,25.3-34.2c1.5-0.2,2.9-0.3,4.4-0.3h52.2&#10;&#9;&#9;c14.9-0.1,27.6,10.8,29.7,25.5l10.4,95.8c0.2,1.1-0.6,2.1-1.7,2.3C188.1,406.7,188,406.7,187.9,406.7L187.9,406.7z M80.9,402.6&#10;&#9;&#9;h104.7l-10.2-93.4c-1.9-12.7-12.8-22-25.6-22H97.6c-14.4,0-26,11.7-26,26c0,1.3,0.1,2.6,0.3,3.9L80.9,402.6z"/>
	<path class="st4_report-analysis-2-83" d="M283.5,335.2c0,0,10.2-10.2,13.1-11.6s18.3,0.1,21.5,2.3c6,4.1,6.4,9.1,3.8,11.5s-8.4-1.6-8.4-1.6&#10;&#9;&#9;s-6.1,10.5-15.9,13.8L283.5,335.2z"/>
	<path class="st1_report-analysis-2-83" d="M297.5,351.7c-0.6,0-1.1-0.2-1.5-0.6l-14-14.4c-0.8-0.8-0.8-2.1,0-2.9c1.7-1.7,10.5-10.5,13.6-12&#10;&#9;&#9;c3.7-1.8,19.8-0.1,23.6,2.5s6,5.8,6.2,9.1c0.2,2.1-0.6,4.2-2.2,5.6c-2.7,2.4-6.7,0.9-9.1-0.4c-2.3,3.3-7.9,10.3-15.9,13&#10;&#9;&#9;C297.9,351.7,297.7,351.7,297.5,351.7z M286.4,335.3l11.6,12c8.3-3.4,13.5-12.4,13.6-12.5c0.3-0.5,0.8-0.9,1.3-1&#10;&#9;&#9;c0.6-0.1,1.1,0,1.6,0.3c2.1,1.4,5.1,2.5,5.9,1.8c0.6-0.6,0.9-1.4,0.8-2.2c-0.1-2-1.7-4.2-4.4-6s-17.3-3.2-19.4-2.2&#10;&#9;&#9;C295.8,326.3,290.3,331.4,286.4,335.3L286.4,335.3z"/>
</g>
<g id="graph_report-analysis-2-83">
	<path class="st1_report-analysis-2-83" d="M406.5,283.5h-94.6c-1.1,0-2.1-0.9-2.1-2.1V239c0.1-1.1,1.1-2,2.2-1.9c1,0.1,1.8,0.9,1.9,1.9v40.4h92.5&#10;&#9;&#9;c1.1-0.1,2.1,0.8,2.2,1.9c0.1,1.1-0.8,2.1-1.9,2.2C406.7,283.5,406.6,283.5,406.5,283.5L406.5,283.5z"/>
	<rect x="325.1" y="261" class="st6_report-analysis-2-83" width="13.9" height="20.4"/>
	<path class="st1_report-analysis-2-83" d="M339,283.5h-13.9c-1.1,0-2.1-0.9-2.1-2.1V261c0-1.1,0.9-2.1,2.1-2.1H339c1.1,0,2.1,0.9,2.1,2.1v20.4&#10;&#9;&#9;C341.1,282.6,340.2,283.5,339,283.5C339,283.5,339,283.5,339,283.5z M327.1,279.4h9.9v-16.3h-9.8L327.1,279.4z"/>
	<rect x="352.2" y="249.9" class="st2_report-analysis-2-83" width="13.9" height="31.6"/>
	<path class="st1_report-analysis-2-83" d="M366.1,283.5h-13.9c-1.1,0-2.1-0.9-2.1-2.1v-31.6c0-1.1,0.9-2.1,2.1-2.1h13.9c1.1,0,2.1,0.9,2.1,2.1v0v31.6&#10;&#9;&#9;C368.2,282.6,367.2,283.5,366.1,283.5z M354.2,279.4h9.8v-27.5h-9.8V279.4z"/>
	<rect x="379.3" y="237.7" class="st7_report-analysis-2-83" width="13.9" height="43.8"/>
	<path class="st1_report-analysis-2-83" d="M393.2,283.5h-13.9c-1.1,0-2.1-0.9-2.1-2.1v-43.8c0-1.1,0.9-2.1,2.1-2.1h13.9c1.1,0,2.1,0.9,2.1,2.1v0v43.8&#10;&#9;&#9;C395.3,282.6,394.3,283.5,393.2,283.5z M381.3,279.4h9.8v-39.7h-9.8V279.4z"/>
	<path class="st8_report-analysis-2-83" d="M340.6,222.4h-28.7c-1.1-0.1-2-1.1-1.9-2.2c0.1-1,0.9-1.8,1.9-1.9h28.7c1.1,0.1,2,1.1,1.9,2.2&#10;&#9;&#9;C342.4,221.5,341.6,222.3,340.6,222.4z"/>
	<path class="st8_report-analysis-2-83" d="M375.7,223.4h-7c-1.1-0.1-2-1.1-1.9-2.2c0.1-1,0.9-1.8,1.9-1.9h7c1.1,0.1,2,1.1,1.9,2.2&#10;&#9;&#9;C377.6,222.6,376.8,223.4,375.7,223.4z"/>
	<path class="st8_report-analysis-2-83" d="M398.5,223.4h-10.2c-1.1-0.1-2-1.1-1.9-2.2c0.1-1,0.9-1.8,1.9-1.9h10.1c1.1,0.1,2,1.1,1.9,2.2&#10;&#9;&#9;C400.3,222.6,399.5,223.4,398.5,223.4L398.5,223.4z"/>
</g>
</svg>